
<?xml version="1.0" encoding="utf-8"?><svg version="1.1" id="Layer_1" xmlns="http://www.w3.org/2000/svg" xmlns:xlink="http://www.w3.org/1999/xlink" x="0px" y="0px" viewBox="0 0 122.88 103.57" style="enable-background:new 0 0 122.88 103.57" xml:space="preserve"><style type="text/css">.st0{fill-rule:evenodd;clip-rule:evenodd;}</style>





<path d="M61.74 12.33L52.74 2.33C52.6465 2.22641 52.5324 2.14353 52.4049 2.0867C52.2775 2.02986 52.1395 2.00033 52 2H27C25.6739 2 24.4021 2.52678 23.4645 3.46447C22.5268 4.40215 22 5.67392 22 7V22H5C4.20508 22.0024 3.4434 22.3192 2.8813 22.8813C2.31921 23.4434 2.00237 24.2051 2 25V59C2.00237 59.7949 2.31921 60.5566 2.8813 61.1187C3.4434 61.6808 4.20508 61.9976 5 62H27C27.7949 61.9976 28.5566 61.6808 29.1187 61.1187C29.6808 60.5566 29.9976 59.7949 30 59V54H57C58.3261 54 59.5979 53.4732 60.5355 52.5355C61.4732 51.5979 62 50.3261 62 49V13C62.0022 12.7516 61.9092 12.5119 61.74 12.33V12.33ZM53 5.61L58.75 12H54C53.7348 12 53.4804 11.8946 53.2929 11.7071C53.1054 11.5196 53 11.2652 53 11V5.61ZM28 59C28 59.2652 27.8946 59.5196 27.7071 59.7071C27.5196 59.8946 27.2652 60 27 60H5C4.73478 60 4.48043 59.8946 4.29289 59.7071C4.10536 59.5196 4 59.2652 4 59V25C4 24.7348 4.10536 24.4804 4.29289 24.2929C4.48043 24.1054 4.73478 24 5 24H27C27.2652 24 27.5196 24.1054 27.7071 24.2929C27.8946 24.4804 28 24.7348 28 25V59ZM60 49C59.9976 49.7949 59.6808 50.5566 59.1187 51.1187C58.5566 51.6808 57.7949 51.9976 57 52H30V25C29.9976 24.2051 29.6808 23.4434 29.1187 22.8813C28.5566 22.3192 27.7949 22.0024 27 22H24V7C24.0024 6.20508 24.3192 5.4434 24.8813 4.8813C25.4434 4.31921 26.2051 4.00237 27 4H51V11C51.0024 11.7949 51.3192 12.5566 51.8813 13.1187C52.4434 13.6808 53.2051 13.9976 54 14H60V49Z" fill="black"/>
<path d="M36.553 27.105L37.447 28.895L51.459 21.889L50.74 24.571L52.672 25.089L53.966 20.259C54 20.1321 54.0087 19.9998 53.9916 19.8696C53.9745 19.7394 53.9319 19.6138 53.8662 19.5C53.8006 19.3863 53.7132 19.2866 53.609 19.2066C53.5048 19.1266 53.3859 19.068 53.259 19.034L48.429 17.74L47.911 19.672L50.196 20.284L36.553 27.105Z" fill="black"/>
<path d="M56 38V40H33C32.7348 40 32.4804 39.8946 32.2929 39.7071C32.1054 39.5196 32 39.2652 32 39V17H34V38H36V33H38V38H40V31H42V38H44V33H46V38H48V29H50V38H52V27H54V38H56Z" fill="black"/>
<path d="M50 42H34V44H50V42Z" fill="black"/>
<path d="M50 46H34V48H50V46Z" fill="black"/>
<path d="M44 12H28V14H44V12Z" fill="black"/>
<path d="M30 8H28V10H30V8Z" fill="black"/>
<path d="M44 8H32V10H44V8Z" fill="black"/>
<path d="M24 38H8C7.46957 38 6.96086 38.2107 6.58579 38.5858C6.21071 38.9609 6 39.4696 6 40V56C6 56.5304 6.21071 57.0391 6.58579 57.4142C6.96086 57.7893 7.46957 58 8 58H24C24.5304 58 25.0391 57.7893 25.4142 57.4142C25.7893 57.0391 26 56.5304 26 56V40C26 39.4696 25.7893 38.9609 25.4142 38.5858C25.0391 38.2107 24.5304 38 24 38ZM24 44H20V40H24V44ZM14 50V46H18V50H14ZM18 52V56H14V52H18ZM12 50H8V46H12V50ZM14 44V40H18V44H14ZM20 46H24V50H20V46ZM12 40V44H8V40H12ZM8 52H12V56H8V52ZM20 56V52H24V56H20Z" fill="black"/>
<path d="M24 26H8C7.46957 26 6.96086 26.2107 6.58579 26.5858C6.21071 26.9609 6 27.4696 6 28V34C6 34.5304 6.21071 35.0391 6.58579 35.4142C6.96086 35.7893 7.46957 36 8 36H24C24.5304 36 25.0391 35.7893 25.4142 35.4142C25.7893 35.0391 26 34.5304 26 34V28C26 27.4696 25.7893 26.9609 25.4142 26.5858C25.0391 26.2107 24.5304 26 24 26ZM24 34H8V28H24V34Z" fill="black"/>
<path d="M21 30H19V32H21V30Z" fill="black"/>
<path d="M17 30H15V32H17V30Z" fill="black"/>
<path d="M13 30H11V32H13V30Z" fill="black"/>
</svg>
