<?xml version="1.0" encoding="UTF-8" standalone="no"?> <svg width="64" height="64" viewBox="0 0 64 64" fill="none" xmlns="http://www.w3.org/2000/svg">
<path d="M9 44V50H55V44H53V46H51V44H49V46H47V44H45V46H43V44H41V46H39V44H37V46H35V44H33V46H31V44H29V46H27V44H25V46H23V44H21V46H19V44H17V46H15V44H13V46H11V44H9Z" fill="black"/>
<path d="M44 60V59H18.414L17.414 60H44Z" fill="black"/>
<path d="M52 56H50V60H52C52.5304 60 53.0391 59.7893 53.4142 59.4142C53.7893 59.0391 54 58.5304 54 58C54 57.4696 53.7893 56.9609 53.4142 56.5858C53.0391 56.2107 52.5304 56 52 56Z" fill="black"/>
<path d="M44 57V56H17.414L18.414 57H44Z" fill="black"/>
<path d="M48 56H46V60H48V56Z" fill="black"/>
<path d="M11.236 58L14.803 59.783L16.586 58L14.803 56.217L11.236 58Z" fill="black"/>
<path d="M22.779 18.345L19.819 22.573C19.7268 22.7046 19.6042 22.8121 19.4616 22.8862C19.3191 22.9604 19.1607 22.9992 19 22.9992C18.8393 22.9992 18.6809 22.9604 18.5384 22.8862C18.3958 22.8121 18.2732 22.7046 18.181 22.573L15.221 18.345C14.2579 19.1259 13.5604 20.186 13.2245 21.3796C12.8885 22.5731 12.9305 23.8414 13.3448 25.0101C13.7591 26.1787 14.5253 27.1903 15.5379 27.9058C16.5506 28.6212 17.7601 29.0054 19 29.0054C20.2399 29.0054 21.4494 28.6212 22.4621 27.9058C23.4747 27.1903 24.2409 26.1787 24.6552 25.0101C25.0695 23.8414 25.1115 22.5731 24.7755 21.3796C24.4396 20.186 23.7421 19.1259 22.779 18.345V18.345Z" fill="black"/>
<path d="M19 15C20.104 15.0001 21.1959 15.2303 22.206 15.676L24.08 13H13.92L15.794 15.676C16.8041 15.2303 17.8959 15.0001 19 15V15Z" fill="black"/>
<path d="M7 4V35H31V4H7ZM19 31C17.3351 31.0019 15.7112 30.4837 14.3551 29.5179C12.999 28.552 11.9784 27.1867 11.4359 25.6126C10.8935 24.0386 10.8562 22.3344 11.3294 20.7381C11.8025 19.1418 12.7624 17.7332 14.075 16.709L11.181 12.573C11.0762 12.4232 11.0146 12.2475 11.0027 12.065C10.9908 11.8826 11.0291 11.7004 11.1136 11.5382C11.198 11.376 11.3253 11.2401 11.4816 11.1452C11.6379 11.0503 11.8172 11.0001 12 11H26C26.1828 11.0001 26.3621 11.0503 26.5184 11.1452C26.6747 11.2401 26.802 11.376 26.8864 11.5382C26.9709 11.7004 27.0092 11.8826 26.9973 12.065C26.9854 12.2475 26.9238 12.4232 26.819 12.573L23.925 16.709C25.2376 17.7332 26.1975 19.1418 26.6706 20.7381C27.1438 22.3344 27.1065 24.0386 26.5641 25.6126C26.0216 27.1867 25.001 28.552 23.6449 29.5179C22.2888 30.4837 20.6649 31.0019 19 31Z" fill="black"/>
<path d="M4 8V38H60V8H59V36C59 36.2652 58.8946 36.5196 58.7071 36.7071C58.5196 36.8946 58.2652 37 58 37H6C5.73478 37 5.48043 36.8946 5.29289 36.7071C5.10536 36.5196 5 36.2652 5 36V8H4Z" fill="black"/>
<path d="M16.973 17.3599L19 20.2559L21.027 17.3559C19.7183 16.876 18.2817 16.876 16.973 17.3559V17.3599Z" fill="black"/>
<path d="M48.68 15L50.08 13H39.92L41.32 15H48.68Z" fill="black"/>
<path d="M45.819 22.573C45.7268 22.7046 45.6042 22.8121 45.4616 22.8863C45.3191 22.9605 45.1607 22.9992 45 22.9992C44.8393 22.9992 44.6809 22.9605 44.5384 22.8863C44.3958 22.8121 44.2732 22.7046 44.181 22.573L40.279 17H39V29H51V17H49.721L45.819 22.573Z" fill="black"/>
<path d="M57 4H33V35H57V4ZM53 30C53 30.2652 52.8946 30.5196 52.7071 30.7071C52.5196 30.8946 52.2652 31 52 31H38C37.7348 31 37.4804 30.8946 37.2929 30.7071C37.1054 30.5196 37 30.2652 37 30V16C37 15.7348 37.1054 15.4804 37.2929 15.2929C37.4804 15.1054 37.7348 15 38 15H38.879L37.179 12.573C37.0741 12.423 37.0124 12.2471 37.0006 12.0645C36.9888 11.8819 37.0274 11.6995 37.112 11.5373C37.1967 11.3751 37.3243 11.2392 37.4809 11.1444C37.6374 11.0497 37.817 10.9997 38 11H52C52.1828 11.0001 52.3621 11.0503 52.5184 11.1452C52.6747 11.2401 52.802 11.376 52.8864 11.5382C52.9709 11.7004 53.0092 11.8826 52.9973 12.065C52.9854 12.2475 52.9238 12.4232 52.819 12.573L51.121 15H52C52.2652 15 52.5196 15.1054 52.7071 15.2929C52.8946 15.4804 53 15.7348 53 16V30Z" fill="black"/>
<path d="M47.279 17H42.721L45 20.256L47.279 17Z" fill="black"/>
</svg>
