<?xml version="1.0" encoding="UTF-8" standalone="no"?> <svg width="48" height="48" viewBox="0 0 48 48" fill="none" xmlns="http://www.w3.org/2000/svg">
<path d="M32 2H16C14.6744 2.00159 13.4036 2.52888 12.4662 3.46622C11.5289 4.40356 11.0016 5.6744 11 7V41C11.0016 42.3256 11.5289 43.5964 12.4662 44.5338C13.4036 45.4711 14.6744 45.9984 16 46H32C33.3256 45.9984 34.5964 45.4711 35.5338 44.5338C36.4711 43.5964 36.9984 42.3256 37 41V7C36.9984 5.6744 36.4711 4.40356 35.5338 3.46622C34.5964 2.52888 33.3256 2.00159 32 2V2ZM16 4H32C32.7956 4 33.5587 4.31607 34.1213 4.87868C34.6839 5.44129 35 6.20435 35 7V38H33V34C32.9978 32.3958 32.4455 30.841 31.4353 29.5949C30.4251 28.3488 29.018 27.4869 27.449 27.153C28.941 26.3801 30.1302 25.1285 30.8259 23.599C31.5216 22.0695 31.6836 20.3507 31.2858 18.7181C30.888 17.0856 29.9536 15.6339 28.6322 14.5959C27.3109 13.5579 25.6793 12.9936 23.999 12.9936C22.3187 12.9936 20.6871 13.5579 19.3658 14.5959C18.0444 15.6339 17.11 17.0856 16.7122 18.7181C16.3144 20.3507 16.4764 22.0695 17.1721 23.599C17.8678 25.1285 19.057 26.3801 20.549 27.153C18.9803 27.4873 17.5738 28.3494 16.5639 29.5954C15.5541 30.8415 15.0021 32.3961 15 34V38H13V7C13 6.20435 13.3161 5.44129 13.8787 4.87868C14.4413 4.31607 15.2044 4 16 4V4ZM24 26C22.9122 26 21.8488 25.6774 20.9444 25.0731C20.0399 24.4687 19.3349 23.6098 18.9187 22.6048C18.5024 21.5998 18.3935 20.4939 18.6057 19.427C18.8179 18.3601 19.3417 17.3801 20.1109 16.6109C20.8801 15.8417 21.8601 15.3179 22.927 15.1057C23.9939 14.8935 25.0998 15.0024 26.1048 15.4187C27.1098 15.8349 27.9687 16.5399 28.5731 17.4444C29.1774 18.3488 29.5 19.4122 29.5 20.5C29.4984 21.9582 28.9184 23.3562 27.8873 24.3873C26.8562 25.4184 25.4582 25.9984 24 26V26ZM26 29C27.3256 29.0016 28.5964 29.5289 29.5338 30.4662C30.4711 31.4036 30.9984 32.6744 31 34V38H17V34C17.0016 32.6744 17.5289 31.4036 18.4662 30.4662C19.4036 29.5289 20.6744 29.0016 22 29H26ZM32 44H16C15.2044 44 14.4413 43.6839 13.8787 43.1213C13.3161 42.5587 13 41.7956 13 41V40H35V41C35 41.7956 34.6839 42.5587 34.1213 43.1213C33.5587 43.6839 32.7956 44 32 44Z" fill="black"/>
<path d="M19 8H25C25.2652 8 25.5196 7.89464 25.7071 7.70711C25.8946 7.51957 26 7.26522 26 7C26 6.73478 25.8946 6.48043 25.7071 6.29289C25.5196 6.10536 25.2652 6 25 6H19C18.7348 6 18.4804 6.10536 18.2929 6.29289C18.1054 6.48043 18 6.73478 18 7C18 7.26522 18.1054 7.51957 18.2929 7.70711C18.4804 7.89464 18.7348 8 19 8Z" fill="black"/>
<path d="M29 8C29.5523 8 30 7.55228 30 7C30 6.44772 29.5523 6 29 6C28.4477 6 28 6.44772 28 7C28 7.55228 28.4477 8 29 8Z" fill="black"/>
<path d="M26.234 21.136C26.1205 21.0698 25.9952 21.0266 25.865 21.0088C25.7348 20.9911 25.6025 20.9991 25.4754 21.0326C25.3484 21.066 25.2292 21.1241 25.1246 21.2037C25.02 21.2832 24.9322 21.3825 24.866 21.496C24.7729 21.6411 24.6448 21.7605 24.4934 21.8432C24.3421 21.9259 24.1724 21.9692 24 21.9692C23.8276 21.9692 23.6579 21.9259 23.5066 21.8432C23.3553 21.7605 23.2271 21.6411 23.134 21.496C22.9956 21.2777 22.778 21.1214 22.5269 21.0601C22.2757 20.9987 22.0106 21.037 21.7871 21.1668C21.5636 21.2967 21.399 21.5081 21.328 21.7566C21.2569 22.0052 21.2849 22.2716 21.406 22.5C21.6699 22.9541 22.0483 23.3311 22.5035 23.5931C22.9587 23.8551 23.4748 23.993 24 23.993C24.5252 23.993 25.0413 23.8551 25.4965 23.5931C25.9517 23.3311 26.3302 22.9541 26.594 22.5C26.7265 22.2712 26.763 21.9993 26.6955 21.7437C26.628 21.4881 26.4621 21.2696 26.234 21.136V21.136Z" fill="black"/>
<path d="M44 23H41C40.7348 23 40.4804 23.1054 40.2929 23.2929C40.1054 23.4804 40 23.7348 40 24C40 24.2652 40.1054 24.5196 40.2929 24.7071C40.4804 24.8946 40.7348 25 41 25H44C44.2652 25 44.5196 24.8946 44.7071 24.7071C44.8946 24.5196 45 24.2652 45 24C45 23.7348 44.8946 23.4804 44.7071 23.2929C44.5196 23.1054 44.2652 23 44 23Z" fill="black"/>
<path d="M8 24C8 23.7348 7.89464 23.4804 7.70711 23.2929C7.51957 23.1054 7.26522 23 7 23H4C3.73478 23 3.48043 23.1054 3.29289 23.2929C3.10536 23.4804 3 23.7348 3 24C3 24.2652 3.10536 24.5196 3.29289 24.7071C3.48043 24.8946 3.73478 25 4 25H7C7.26522 25 7.51957 24.8946 7.70711 24.7071C7.89464 24.5196 8 24.2652 8 24Z" fill="black"/>
<path d="M40.2 17.75C40.3755 17.75 40.548 17.7038 40.7 17.616L43.3 16.116C43.4146 16.0508 43.5153 15.9636 43.5961 15.8594C43.6769 15.7552 43.7363 15.636 43.7708 15.5087C43.8054 15.3814 43.8144 15.2486 43.7974 15.1178C43.7804 14.987 43.7377 14.8609 43.6718 14.7467C43.6058 14.6325 43.5179 14.5324 43.4132 14.4523C43.3084 14.3722 43.1888 14.3136 43.0613 14.2799C42.9338 14.2462 42.8009 14.238 42.6703 14.2559C42.5396 14.2738 42.4138 14.3173 42.3 14.384L39.7 15.884C39.5094 15.9941 39.3604 16.164 39.2762 16.3673C39.1919 16.5707 39.1771 16.7962 39.2341 17.0088C39.2911 17.2215 39.4166 17.4093 39.5913 17.5433C39.7659 17.6774 39.9799 17.75 40.2 17.75Z" fill="black"/>
<path d="M8.29999 15.884L5.69999 14.384C5.58622 14.3173 5.46038 14.2738 5.32971 14.2559C5.19905 14.238 5.06614 14.2462 4.93864 14.2799C4.81114 14.3136 4.69157 14.3722 4.58681 14.4523C4.48205 14.5324 4.39417 14.6325 4.32823 14.7467C4.26228 14.8609 4.21958 14.987 4.20259 15.1178C4.18559 15.2486 4.19463 15.3814 4.22918 15.5087C4.26373 15.636 4.32312 15.7552 4.40392 15.8594C4.48472 15.9636 4.58534 16.0508 4.69999 16.116L7.29999 17.616C7.41376 17.6827 7.5396 17.7262 7.67026 17.7441C7.80093 17.762 7.93384 17.7538 8.06134 17.7201C8.18883 17.6864 8.30841 17.6278 8.41317 17.5477C8.51793 17.4676 8.60581 17.3675 8.67175 17.2533C8.73769 17.1391 8.78039 17.013 8.79739 16.8822C8.81439 16.7514 8.80535 16.6186 8.7708 16.4913C8.73625 16.364 8.67686 16.2449 8.59606 16.1406C8.51525 16.0364 8.41463 15.9492 8.29999 15.884Z" fill="black"/>
<path d="M43.3 31.884L40.7 30.384C40.5862 30.3173 40.4604 30.2738 40.3297 30.2559C40.199 30.238 40.0661 30.2462 39.9386 30.2799C39.8111 30.3136 39.6916 30.3722 39.5868 30.4523C39.482 30.5324 39.3942 30.6325 39.3282 30.7467C39.2623 30.8609 39.2196 30.987 39.2026 31.1178C39.1856 31.2486 39.1946 31.3814 39.2292 31.5087C39.2637 31.636 39.3231 31.7552 39.4039 31.8594C39.4847 31.9636 39.5853 32.0508 39.7 32.116L42.3 33.616C42.4138 33.6827 42.5396 33.7262 42.6703 33.7441C42.8009 33.762 42.9338 33.7538 43.0613 33.7201C43.1888 33.6864 43.3084 33.6278 43.4132 33.5477C43.5179 33.4676 43.6058 33.3675 43.6718 33.2533C43.7377 33.1391 43.7804 33.013 43.7974 32.8822C43.8144 32.7514 43.8054 32.6186 43.7708 32.4913C43.7362 32.364 43.6769 32.2449 43.5961 32.1406C43.5153 32.0364 43.4146 31.9492 43.3 31.884V31.884Z" fill="black"/>
<path d="M7.29999 30.384L4.69999 31.884C4.58534 31.9492 4.48472 32.0364 4.40392 32.1406C4.32312 32.2449 4.26373 32.364 4.22918 32.4913C4.19463 32.6186 4.18559 32.7514 4.20259 32.8822C4.21958 33.013 4.26228 33.1391 4.32823 33.2533C4.39417 33.3675 4.48205 33.4676 4.58681 33.5477C4.69157 33.6278 4.81114 33.6864 4.93864 33.7201C5.06614 33.7538 5.19905 33.762 5.32971 33.7441C5.46038 33.7262 5.58622 33.6827 5.69999 33.616L8.29999 32.116C8.41463 32.0508 8.51525 31.9636 8.59606 31.8594C8.67686 31.7552 8.73625 31.636 8.7708 31.5087C8.80535 31.3814 8.81439 31.2486 8.79739 31.1178C8.78039 30.987 8.73769 30.8609 8.67175 30.7467C8.60581 30.6325 8.51793 30.5324 8.41317 30.4523C8.30841 30.3722 8.18883 30.3136 8.06134 30.2799C7.93384 30.2462 7.80093 30.238 7.67026 30.2559C7.5396 30.2738 7.41376 30.3173 7.29999 30.384V30.384Z" fill="black"/>
</svg>
